<mxfile host="app.diagrams.net" modified="2023-04-18T13:00:14.665Z" agent="Mozilla/5.0 (Windows NT 10.0; Win64; x64) AppleWebKit/537.36 (KHTML, like Gecko) Chrome/112.0.0.0 Safari/537.36 Edg/112.0.1722.48" etag="TprdkNdV3ydIyEh5fXaY" version="21.1.8" type="github">
  <diagram name="第 1 页" id="1bvjNOe7LyJNec-dtIS4">
    <mxGraphModel dx="993" dy="581" grid="0" gridSize="10" guides="1" tooltips="1" connect="1" arrows="1" fold="1" page="0" pageScale="1" pageWidth="827" pageHeight="1169" math="0" shadow="0">
      <root>
        <mxCell id="0" />
        <mxCell id="1" parent="0" />
        <mxCell id="MBN59HDwEROqRYg8pXOh-1" value="管理" style="rhombus;whiteSpace=wrap;html=1;" parent="1" vertex="1">
          <mxGeometry x="132" y="102" width="71" height="67" as="geometry" />
        </mxCell>
        <mxCell id="MBN59HDwEROqRYg8pXOh-2" value="" style="endArrow=none;html=1;rounded=0;entryX=0.5;entryY=1;entryDx=0;entryDy=0;exitX=0.5;exitY=0;exitDx=0;exitDy=0;" parent="1" source="MBN59HDwEROqRYg8pXOh-3" target="MBN59HDwEROqRYg8pXOh-1" edge="1">
          <mxGeometry width="50" height="50" relative="1" as="geometry">
            <mxPoint x="168" y="214" as="sourcePoint" />
            <mxPoint x="437" y="277" as="targetPoint" />
          </mxGeometry>
        </mxCell>
        <mxCell id="MBN59HDwEROqRYg8pXOh-3" value="管理员" style="rounded=0;whiteSpace=wrap;html=1;" parent="1" vertex="1">
          <mxGeometry x="129.5" y="231" width="76" height="42" as="geometry" />
        </mxCell>
        <mxCell id="MBN59HDwEROqRYg8pXOh-4" value="" style="endArrow=none;html=1;rounded=0;entryX=0.5;entryY=1;entryDx=0;entryDy=0;" parent="1" target="MBN59HDwEROqRYg8pXOh-3" edge="1">
          <mxGeometry width="50" height="50" relative="1" as="geometry">
            <mxPoint x="168" y="382" as="sourcePoint" />
            <mxPoint x="437" y="277" as="targetPoint" />
          </mxGeometry>
        </mxCell>
        <mxCell id="MBN59HDwEROqRYg8pXOh-5" value="" style="endArrow=none;html=1;rounded=0;" parent="1" edge="1">
          <mxGeometry width="50" height="50" relative="1" as="geometry">
            <mxPoint x="169" y="381" as="sourcePoint" />
            <mxPoint x="471" y="381" as="targetPoint" />
          </mxGeometry>
        </mxCell>
        <mxCell id="MBN59HDwEROqRYg8pXOh-7" value="管理" style="rhombus;whiteSpace=wrap;html=1;" parent="1" vertex="1">
          <mxGeometry x="470" y="340" width="80" height="80" as="geometry" />
        </mxCell>
        <mxCell id="MBN59HDwEROqRYg8pXOh-8" value="" style="endArrow=none;html=1;rounded=0;entryX=0.5;entryY=0;entryDx=0;entryDy=0;" parent="1" target="MBN59HDwEROqRYg8pXOh-7" edge="1">
          <mxGeometry width="50" height="50" relative="1" as="geometry">
            <mxPoint x="404" y="278" as="sourcePoint" />
            <mxPoint x="437" y="277" as="targetPoint" />
          </mxGeometry>
        </mxCell>
        <mxCell id="MBN59HDwEROqRYg8pXOh-9" value="" style="rounded=0;whiteSpace=wrap;html=1;" parent="1" vertex="1">
          <mxGeometry x="361" y="236" width="80" height="41" as="geometry" />
        </mxCell>
        <mxCell id="55TXnulcEieAEGRfDUaT-1" value="用户" style="shape=umlActor;verticalLabelPosition=bottom;verticalAlign=top;html=1;outlineConnect=0;" parent="1" vertex="1">
          <mxGeometry x="32" y="746" width="30" height="60" as="geometry" />
        </mxCell>
        <mxCell id="55TXnulcEieAEGRfDUaT-3" value="" style="endArrow=open;endFill=1;endSize=12;html=1;rounded=0;" parent="1" target="55TXnulcEieAEGRfDUaT-4" edge="1">
          <mxGeometry width="160" relative="1" as="geometry">
            <mxPoint x="55" y="775.5" as="sourcePoint" />
            <mxPoint x="141" y="776" as="targetPoint" />
          </mxGeometry>
        </mxCell>
        <mxCell id="55TXnulcEieAEGRfDUaT-4" value="商品管理" style="ellipse;whiteSpace=wrap;html=1;" parent="1" vertex="1">
          <mxGeometry x="139.5" y="695" width="98" height="54" as="geometry" />
        </mxCell>
        <mxCell id="55TXnulcEieAEGRfDUaT-5" value="" style="endArrow=open;endFill=1;endSize=12;html=1;rounded=0;" parent="1" source="55TXnulcEieAEGRfDUaT-1" target="55TXnulcEieAEGRfDUaT-6" edge="1">
          <mxGeometry width="160" relative="1" as="geometry">
            <mxPoint x="259" y="716" as="sourcePoint" />
            <mxPoint x="187" y="766" as="targetPoint" />
          </mxGeometry>
        </mxCell>
        <mxCell id="55TXnulcEieAEGRfDUaT-6" value="管理员管理" style="ellipse;whiteSpace=wrap;html=1;" parent="1" vertex="1">
          <mxGeometry x="144" y="791" width="89" height="62" as="geometry" />
        </mxCell>
        <mxCell id="55TXnulcEieAEGRfDUaT-12" value="Use" style="endArrow=open;endSize=12;dashed=1;html=1;rounded=0;exitX=0.965;exitY=0.315;exitDx=0;exitDy=0;exitPerimeter=0;entryX=0;entryY=1;entryDx=0;entryDy=0;" parent="1" source="55TXnulcEieAEGRfDUaT-4" target="55TXnulcEieAEGRfDUaT-14" edge="1">
          <mxGeometry width="160" relative="1" as="geometry">
            <mxPoint x="259" y="716" as="sourcePoint" />
            <mxPoint x="299" y="531" as="targetPoint" />
          </mxGeometry>
        </mxCell>
        <mxCell id="55TXnulcEieAEGRfDUaT-14" value="新增商品" style="ellipse;whiteSpace=wrap;html=1;" parent="1" vertex="1">
          <mxGeometry x="293" y="613" width="92" height="52" as="geometry" />
        </mxCell>
        <mxCell id="55TXnulcEieAEGRfDUaT-15" value="Use" style="endArrow=open;endSize=12;dashed=1;html=1;rounded=0;exitX=1;exitY=0.5;exitDx=0;exitDy=0;" parent="1" source="55TXnulcEieAEGRfDUaT-4" target="55TXnulcEieAEGRfDUaT-16" edge="1">
          <mxGeometry width="160" relative="1" as="geometry">
            <mxPoint x="259" y="716" as="sourcePoint" />
            <mxPoint x="356" y="575" as="targetPoint" />
          </mxGeometry>
        </mxCell>
        <mxCell id="55TXnulcEieAEGRfDUaT-16" value="编辑商品信息" style="ellipse;whiteSpace=wrap;html=1;" parent="1" vertex="1">
          <mxGeometry x="308" y="673" width="81" height="49" as="geometry" />
        </mxCell>
        <mxCell id="55TXnulcEieAEGRfDUaT-17" value="Use" style="endArrow=open;endSize=12;dashed=1;html=1;rounded=0;exitX=1;exitY=0.5;exitDx=0;exitDy=0;" parent="1" source="55TXnulcEieAEGRfDUaT-4" target="55TXnulcEieAEGRfDUaT-18" edge="1">
          <mxGeometry width="160" relative="1" as="geometry">
            <mxPoint x="259" y="716" as="sourcePoint" />
            <mxPoint x="355" y="633" as="targetPoint" />
          </mxGeometry>
        </mxCell>
        <mxCell id="55TXnulcEieAEGRfDUaT-18" value="删除商品" style="ellipse;whiteSpace=wrap;html=1;" parent="1" vertex="1">
          <mxGeometry x="308" y="729" width="90" height="46" as="geometry" />
        </mxCell>
        <mxCell id="55TXnulcEieAEGRfDUaT-19" value="Use" style="endArrow=open;endSize=12;dashed=1;html=1;rounded=0;exitX=0.998;exitY=0.365;exitDx=0;exitDy=0;exitPerimeter=0;entryX=0.048;entryY=0.318;entryDx=0;entryDy=0;entryPerimeter=0;" parent="1" source="55TXnulcEieAEGRfDUaT-6" target="55TXnulcEieAEGRfDUaT-20" edge="1">
          <mxGeometry width="160" relative="1" as="geometry">
            <mxPoint x="259" y="716" as="sourcePoint" />
            <mxPoint x="369" y="681" as="targetPoint" />
          </mxGeometry>
        </mxCell>
        <mxCell id="55TXnulcEieAEGRfDUaT-20" value="添加管理员" style="ellipse;whiteSpace=wrap;html=1;" parent="1" vertex="1">
          <mxGeometry x="301" y="791" width="91.25" height="48" as="geometry" />
        </mxCell>
        <mxCell id="55TXnulcEieAEGRfDUaT-21" value="Use" style="endArrow=open;endSize=12;dashed=1;html=1;rounded=0;exitX=1;exitY=0.5;exitDx=0;exitDy=0;entryX=0.083;entryY=0.198;entryDx=0;entryDy=0;entryPerimeter=0;" parent="1" source="55TXnulcEieAEGRfDUaT-6" target="55TXnulcEieAEGRfDUaT-22" edge="1">
          <mxGeometry width="160" relative="1" as="geometry">
            <mxPoint x="259" y="716" as="sourcePoint" />
            <mxPoint x="361" y="728" as="targetPoint" />
          </mxGeometry>
        </mxCell>
        <mxCell id="55TXnulcEieAEGRfDUaT-22" value="删除管理员" style="ellipse;whiteSpace=wrap;html=1;" parent="1" vertex="1">
          <mxGeometry x="293" y="848" width="96" height="51" as="geometry" />
        </mxCell>
      </root>
    </mxGraphModel>
  </diagram>
</mxfile>
